<?xml version="1.0" encoding="UTF-8" standalone="no"?>
<svg
   class="gameIcon-1mDo1J desaturate-_Twf3u medium-1vKkpm gameIcon-1siQqm"
   aria-hidden="true"
   role="img"
   width="24"
   height="24"
   viewBox="0 0 40 40"
   version="1.1"
   id="svg16"
   sodipodi:docname="discordMissingGame.svg"
   inkscape:export-filename="discordMissingGame.png"
   inkscape:export-xdpi="4096"
   inkscape:export-ydpi="4096"
   inkscape:version="1.2.1 (9c6d41e410, 2022-07-14)"
   xmlns:inkscape="http://www.inkscape.org/namespaces/inkscape"
   xmlns:sodipodi="http://sodipodi.sourceforge.net/DTD/sodipodi-0.dtd"
   xmlns="http://www.w3.org/2000/svg"
   xmlns:svg="http://www.w3.org/2000/svg">
  <defs
     id="defs20" />
  <sodipodi:namedview
     id="namedview18"
     pagecolor="#505050"
     bordercolor="#eeeeee"
     borderopacity="1"
     inkscape:showpageshadow="0"
     inkscape:pageopacity="0"
     inkscape:pagecheckerboard="0"
     inkscape:deskcolor="#505050"
     showgrid="false"
     inkscape:zoom="33.208333"
     inkscape:cx="9.9222083"
     inkscape:cy="12.015056"
     inkscape:window-width="1920"
     inkscape:window-height="991"
     inkscape:window-x="-9"
     inkscape:window-y="-9"
     inkscape:window-maximized="1"
     inkscape:current-layer="svg16" />
  <g
     fill="none"
     fill-rule="evenodd"
     id="g14">
    <path
       fill="currentColor"
       fill-opacity=".8"
       d="M21.226 30v-4.154h-3.755V30h3.755zm-.512-8.62c3.67-1.337 5.718-2.959 5.718-6.145 0-3.272-2.36-5.235-6.088-5.235-2.589 0-4.637.825-6.344 2.048l.484 3.3c1.621-1.251 3.47-2.162 5.49-2.162 1.707 0 2.845.854 2.845 2.305 0 1.593-1.08 2.475-3.812 3.442l-.882.342.342 4.523 2.076-.455.171-1.963z"
       id="path2" />
    <rect
       width="38"
       height="38"
       x="1"
       y="1"
       stroke="currentColor"
       stroke-opacity=".4"
       stroke-width="2"
       rx="5"
       id="rect4" />
    <circle
       cx="7"
       cy="7"
       r="2"
       fill="currentColor"
       fill-opacity=".4"
       id="circle6" />
    <circle
       cx="7"
       cy="33"
       r="2"
       fill="currentColor"
       fill-opacity=".4"
       id="circle8" />
    <circle
       cx="33"
       cy="7"
       r="2"
       fill="currentColor"
       fill-opacity=".4"
       id="circle10" />
    <circle
       cx="33"
       cy="33"
       r="2"
       fill="currentColor"
       fill-opacity=".4"
       id="circle12" />
  </g>
</svg>
